# xmcd
#
# Track frame offsets: 
#        187
#        10442
#        24577
#        38242
#        50382
#        66165
#        81275
#        91542
#        103105
#        115857
#        128452
#        139190
#        150572
#        162565
#        171597
#        181710
#        192075
#        202617
#        211112
#        221607
#
# Disc length: 3109 seconds
#
# Revision: 1
# Processed by: cddbd v1.4PL0 Copyright (c) Steve Scherf et al.
# Submitted via: ExactAudioCopy v0.90b3
#
DISCID=070c2314
DTITLE=Porter Wagoner and Dolly Parton - Sweet Harmony
DYEAR=1900
DGENRE=Country
TTITLE0=Together Always
TTITLE1=Love's All Over
TTITLE2=Christina
TTITLE3=Poor Folks Town
TTITLE4=Ten Four-Over And Out
TTITLE5=Lost Forever In Your Kiss
TTITLE6=Anyplace You Want To Go
TTITLE7=Looking Down
TTITLE8=Forty Miles From Poplar Bluff
TTITLE9=Tomorrow Is Forever
TTITLE10=Just Someone I Used To Know
TTITLE11=Each Season Changes You
TTITLE12=Silver Sandals
TTITLE13=No Love Left
TTITLE14=It Might As Well Be Me
TTITLE15=Run That By Me One More Time
TTITLE16=Just Between You And Me
TTITLE17=Before I Met You
TTITLE18=Two Sides To Every Story
TTITLE19=The Last Thing On My Mind
EXTD=
EXTT0=
EXTT1=
EXTT2=
EXTT3=
EXTT4=
EXTT5=
EXTT6=
EXTT7=
EXTT8=
EXTT9=
EXTT10=
EXTT11=
EXTT12=
EXTT13=
EXTT14=
EXTT15=
EXTT16=
EXTT17=
EXTT18=
EXTT19=
PLAYORDER=
